<svg xmlns="http://www.w3.org/2000/svg" xmlns:xlink="http://www.w3.org/1999/xlink" width="1040" height="1040" viewBox="0 0 1040 1040">
  <defs>
    <clipPath id="clip-套版_1040_1">
      <rect width="1040" height="1040"/>
    </clipPath>
  </defs>
  <g id="套版_1040_1" data-name="套版Ａ1040 – 1" clip-path="url(#clip-套版_1040_1)">
    <path id="Subtraction_1" data-name="Subtraction 1" d="M2816.4,2613.671h-.075a1.174,1.174,0,0,1-.913-.427c-4.809-5.665-6.924-11.952-6.288-18.684a34.176,34.176,0,0,1,5.772-15.248,72.923,72.923,0,0,0-13.46-14.106l-.023-.019a3.353,3.353,0,1,1-.424-.969,1.266,1.266,0,0,1,.1-.427c-.04-.031-.078-.062-.117-.1a3.9,3.9,0,0,1-1.133-4.242,1.18,1.18,0,0,1,.449-.624c-.3-.473-.618-.952-.944-1.421,1.232.161,2.5.309,3.78.438-.252.351-.509.722-.763,1.106a1.146,1.146,0,0,1-.3.313,1.18,1.18,0,0,1,.071.877,1.479,1.479,0,0,0,.408,1.725,2.4,2.4,0,0,0,.533.338c1.576-1.138,3.1-2.354,4.533-3.614-.019-.126-.044-.255-.075-.38,1.247.082,2.519.147,3.781.193-.421.412-.845.813-1.26,1.194a5.609,5.609,0,0,1-1.322,3.511h.419a1.2,1.2,0,1,1,0,2.4h-3.637a70.613,70.613,0,0,1,10.852,11.668,70.543,70.543,0,0,1,10.85-11.668h-3.475a1.2,1.2,0,1,1,0-2.4h.765a5.486,5.486,0,0,1-1.28-3.012c-.631-.564-1.249-1.143-1.838-1.72,1.427-.06,2.888-.145,4.345-.255a4.358,4.358,0,0,0-.113.576c-.013.1-.023.2-.031.3,1.353,1.165,2.782,2.289,4.25,3.339a2.64,2.64,0,0,0,.867-.471,1.481,1.481,0,0,0,.407-1.725,1.187,1.187,0,0,1,.072-.879,1.235,1.235,0,0,1-.31-.312c-.276-.415-.562-.829-.852-1.229,1.317-.145,2.662-.314,4-.5-.356.508-.718,1.048-1.073,1.605a1.2,1.2,0,0,1,.453.628,3.879,3.879,0,0,1-1.147,4.242,4.587,4.587,0,0,1-.532.389,1.224,1.224,0,0,1,.016.143,1.161,1.161,0,0,1-.447.978,72.605,72.605,0,0,0-13.463,14.1,34.2,34.2,0,0,1,5.774,15.25c.636,6.732-1.48,13.018-6.29,18.684A1.171,1.171,0,0,1,2816.4,2613.671Zm1.157-30.086h0v25.374a21.551,21.551,0,0,0,3.667-14.175A29.413,29.413,0,0,0,2817.56,2583.585Zm-2.391,0h0a29.415,29.415,0,0,0-3.664,11.2,21.535,21.535,0,0,0,3.664,14.171v-25.37Zm-16.99-18.512a.952.952,0,0,0-.955.948.968.968,0,0,0,1.9,0A.949.949,0,0,0,2798.179,2565.072Zm78.775,31.141a1.212,1.212,0,0,1-.675-.212,1.231,1.231,0,0,1-.517-.835,13.3,13.3,0,0,1,10.117-14.865,1.3,1.3,0,0,1,.285-.032,1.2,1.2,0,0,1,.683.211,1.159,1.159,0,0,1,.507.834,13.277,13.277,0,0,1-10.107,14.86A1.393,1.393,0,0,1,2876.955,2596.213Zm8.14-13.157h0a10.8,10.8,0,1,0-1.872,6.308,10.885,10.885,0,0,0,1.872-6.308Zm-128.805,13.157a1.382,1.382,0,0,1-.288-.04,13.3,13.3,0,0,1-10.123-14.86,1.186,1.186,0,0,1,.517-.834,1.172,1.172,0,0,1,.677-.211,1.26,1.26,0,0,1,.281.032,13.287,13.287,0,0,1,10.118,14.865,1.2,1.2,0,0,1-.512.835A1.22,1.22,0,0,1,2756.29,2596.213Zm-8.14-13.157h0a10.811,10.811,0,0,0,7.052,10.362,10.63,10.63,0,0,0-1.873-6.309,10.749,10.749,0,0,0-5.179-4.053Zm119.642,1.417a19.509,19.509,0,0,1-10.834-3.178.977.977,0,0,1-.227-.121c-4.308-2.836-6.163-6.535-7.654-9.508l-.009-.018,0-.007c-1.436-2.88-2.474-4.961-5.054-5.463a4.5,4.5,0,0,0-.9-.1,2.4,2.4,0,0,0-1.9.761,1.906,1.906,0,0,0-.447,1.6,1.784,1.784,0,0,0,.913,1.211,1.521,1.521,0,0,0,.7.179,1.164,1.164,0,0,0,.53-.119,1.558,1.558,0,0,1,1.366-1.224.778.778,0,0,1,.109.008c.652.088,1.271.516,1.192,1.165a2.849,2.849,0,0,1-1.564,2.172,3.579,3.579,0,0,1-1.64.394,3.92,3.92,0,0,1-1.822-.459,4.145,4.145,0,0,1-2.136-2.865,4.252,4.252,0,0,1,.954-3.576,4.737,4.737,0,0,1,3.751-1.633,7.063,7.063,0,0,1,1.36.138,7.481,7.481,0,0,1,5.053,3.663,12.671,12.671,0,0,1,4.923-9.476c-3.157-1.115-6.327-2.079-9.419-2.861,1.551-.363,3.124-.762,4.675-1.188,2.448.728,4.9,1.546,7.279,2.431.413-.208.849-.4,1.3-.578l1.4-3.872c-.595-.187-1.168-.365-1.752-.545,2.219-.776,4.459-1.63,6.656-2.541.846.935,1.685,1.928,2.494,2.951l.555.18.432.14c5.6,1.818,11.4,3.7,16.867,5.178a21.17,21.17,0,0,0-3.17-5.814c-3.9-1.171-8.164-2.621-13.05-4.432,1-.459,2.028-.943,3.046-1.441,2.216.8,4.359,1.534,6.369,2.191a23.615,23.615,0,0,0-4.835-2.955c.85-.43,1.719-.883,2.584-1.346a24.912,24.912,0,0,1,7.15,5.823c7.884,2.315,14.335,3.489,19.173,3.489.668,0,1.316-.022,1.927-.067,7.366-.4,10.594-4.013,10.524-7.421-.06-2.715-2.285-5.489-6.422-5.539-2.368.286-4.037,1.3-4.466,2.708a2.472,2.472,0,0,0,.771,2.582,2.675,2.675,0,0,0,1.752.61,4.46,4.46,0,0,0,1.923-.486,1.2,1.2,0,0,1,1.658,1.456,1.2,1.2,0,0,1-.611.7,6.8,6.8,0,0,1-2.969.724,5,5,0,0,1-3.308-1.189,4.846,4.846,0,0,1-1.5-5.1c.35-1.131,1.7-3.822,6.626-4.39a9.3,9.3,0,0,1,6.616,2.51,7.855,7.855,0,0,1,2.324,5.368c.089,4.555-3.823,9.367-12.765,9.852-.719.057-1.483.085-2.273.085-4.5,0-9.978-.893-16.736-2.73a24.047,24.047,0,0,1,2.392,5.521,71.231,71.231,0,0,0,17.011,2.492,28.509,28.509,0,0,0,12.427-2.491,22.051,22.051,0,0,0,5.21-3.449,25.568,25.568,0,0,0,4.426-5.217,5.471,5.471,0,1,1,7.737-7.618,23.035,23.035,0,0,0,10.792-16.568c.941-5.94.278-13.1-2.086-22.542a24.044,24.044,0,0,1-5.514-2.388c2.164,7.917,3.031,14.143,2.652,19.031-.22,4.061-1.374,7.407-3.337,9.678a8.375,8.375,0,0,1-6.354,3.062h-.169c-3.869-.079-7.818-3.125-7.882-8.791a9.3,9.3,0,0,1,2-5.173,5.283,5.283,0,0,1,2.4-1.607,4.96,4.96,0,0,1,1.406-.2,4.83,4.83,0,0,1,3.69,1.709,5.655,5.655,0,0,1,.463,6.283,1.2,1.2,0,1,1-2.151-1.048,3.3,3.3,0,0,0-.135-3.686,2.444,2.444,0,0,0-1.871-.865,2.508,2.508,0,0,0-.7.1c-1.434.437-2.424,2.121-2.717,4.619a6.562,6.562,0,0,0,1.778,4.605,5.491,5.491,0,0,0,3.77,1.659,6.425,6.425,0,0,0,4.817-2.521,13.723,13.723,0,0,0,2.6-7.974c.384-5.031-.759-12.128-3.4-21.1a24.946,24.946,0,0,1-6.048-7.529c.461-.877.917-1.771,1.356-2.657a23.651,23.651,0,0,0,3.164,5.283c-.71-2.167-1.489-4.42-2.384-6.885.485-1.012.962-2.046,1.42-3.073,1.887,5.078,3.4,9.514,4.614,13.56a21.2,21.2,0,0,0,5.812,3.174c-1.476-5.451-3.355-11.24-5.172-16.839l-.006-.019q-.221-.675-.439-1.351l-.062-.192c-1.029-.82-2.027-1.671-2.965-2.53.9-2.235,1.75-4.525,2.521-6.808.219.718.465,1.51.773,2.494l3.867-1.4c.172-.44.368-.88.582-1.306-1-2.7-1.908-5.466-2.7-8.215.422-1.615.819-3.263,1.178-4.9a106.122,106.122,0,0,0,3.15,10.571,12.667,12.667,0,0,1,9.471-4.91,7.481,7.481,0,0,1-3.664-5.053,5.072,5.072,0,0,1,1.495-5.115,4.334,4.334,0,0,1,2.774-1.031,4.067,4.067,0,0,1,.813.082,4.148,4.148,0,0,1,2.855,2.146,3.685,3.685,0,0,1,.055,3.452,2.833,2.833,0,0,1-2.16,1.56c-.046,0-.094.007-.141.007a1.171,1.171,0,0,1-1.2-1.044,1.2,1.2,0,0,1,1.038-1.337,1.25,1.25,0,0,0,.292-1.535,1.782,1.782,0,0,0-1.212-.9,1.878,1.878,0,0,0-.333-.03,1.984,1.984,0,0,0-1.26.472,2.772,2.772,0,0,0-.666,2.8c.512,2.592,2.591,3.628,5.468,5.062l.017.008c2.973,1.491,6.673,3.347,9.51,7.655a1.308,1.308,0,0,1,.1.2,18.95,18.95,0,0,1,3.006,8.07,22.214,22.214,0,0,1-.71,9.081,20.042,20.042,0,0,1-7.1,10.623,19.606,19.606,0,0,1-11.97,3.925,22.953,22.953,0,0,1-2.4-.124c-.512-.062-1.019-.137-1.508-.225a82.606,82.606,0,0,1,2.053,12.12,41.5,41.5,0,0,1-.4,11.115,26.034,26.034,0,0,1-3.795,9.671,26.6,26.6,0,0,1-8.139,7.789,5.475,5.475,0,0,1-6.577,6.47,28.09,28.09,0,0,1-4.873,5.84,24.14,24.14,0,0,1-5.742,3.844,30.955,30.955,0,0,1-13.6,2.757,71.786,71.786,0,0,1-16.427-2.242c.091.505.165,1.008.223,1.492a19.555,19.555,0,0,1-14.424,21.481A22.9,22.9,0,0,1,2867.791,2584.472Zm-10.608-25.451h0c-.1.063-.212.132-.33.209-4.74,3.1-6.167,8.3-3.82,13.9a13.881,13.881,0,0,0,4.58,5.7,16.924,16.924,0,0,0,10.178,3.244,20.442,20.442,0,0,0,5.621-.806c8.693-2.474,13.678-9.9,12.7-18.918a23.886,23.886,0,0,0-.408-2.393c-6.009-1.552-12.255-3.577-18.3-5.535l-.073-.023-.263-.085-.121-.039-.2-.064a1.219,1.219,0,0,1-.232.022,1.187,1.187,0,0,1-.873-.381c-1.465-.474-2.6-.84-3.679-1.184l-.845,2.335a14.607,14.607,0,0,1,2.641-.245,11.987,11.987,0,0,1,8.871,3.7,9.021,9.021,0,0,1,2.454,9.264,8.338,8.338,0,0,1-8.876,5.006,6.107,6.107,0,0,1-5.489-6.053,1.2,1.2,0,0,1,1.152-1.242,1.213,1.213,0,0,1,1.243,1.157,3.788,3.788,0,0,0,3.461,3.769,5.72,5.72,0,0,0,.9.071,5.594,5.594,0,0,0,5.355-3.5,6.8,6.8,0,0,0-1.912-6.8,9.738,9.738,0,0,0-7.195-2.981,12.345,12.345,0,0,0-3.584.543l-.373,1.032a1.163,1.163,0,0,1-.631.676,1.122,1.122,0,0,1-.486.111,1.1,1.1,0,0,1-.443-.092c-.379-.148-.717-.28-1.035-.4ZM2930.137,2542a3.072,3.072,0,0,0-1.467,5.778,1.184,1.184,0,0,1,.349.139c.026.016.053.033.084.055a3.075,3.075,0,1,0,1.034-5.971Zm10.042-65.9-2.336.845c.321,1,.659,2.059,1.007,3.133l.089.068a1.192,1.192,0,0,1,.381,1.385l.1.315.151.467c1.966,6.063,4,12.331,5.558,18.364a24.007,24.007,0,0,0,2.419.413,20.708,20.708,0,0,0,2.175.116,17.149,17.149,0,0,0,10.509-3.416,17.778,17.778,0,0,0,6.215-9.4,18.02,18.02,0,0,0-2.439-15.814,14.047,14.047,0,0,0-5.7-4.58,13.367,13.367,0,0,0-5.148-1.1,9.941,9.941,0,0,0-4.911,1.252,11.048,11.048,0,0,0-3.842,3.678c-.071.107-.137.211-.2.318.133.346.265.687.4,1.041a1.181,1.181,0,0,1-.03.933,1.213,1.213,0,0,1-.676.636l-1.033.373a11.843,11.843,0,0,0-.354,5.637,9.38,9.38,0,0,0,2.773,5.118,7.39,7.39,0,0,0,5.065,2.226,5.21,5.21,0,0,0,1.754-.292,5.7,5.7,0,0,0,3.433-6.258,3.794,3.794,0,0,0-3.778-3.463,1.181,1.181,0,0,1-.831-.374,1.194,1.194,0,0,1,.862-2.015h.052a6.124,6.124,0,0,1,6.064,5.483c.5,3.262-1.079,7.485-5,8.885a7.825,7.825,0,0,1-2.585.431,9.618,9.618,0,0,1-6.71-2.914,11.594,11.594,0,0,1-3.241-5.437,13.772,13.772,0,0,1-.2-6.055Zm-174.721,108.382a23.053,23.053,0,0,1-6.3-.9,19.528,19.528,0,0,1-14.414-21.47c.06-.5.135-1.011.224-1.506a71.838,71.838,0,0,1-16.424,2.24,30.932,30.932,0,0,1-13.65-2.778,24.14,24.14,0,0,1-5.757-3.876,28.181,28.181,0,0,1-4.879-5.891,5.4,5.4,0,0,1-1.624.248,5.478,5.478,0,0,1-5.474-5.469,5.422,5.422,0,0,1,.129-1.184,26.549,26.549,0,0,1-8.1-7.787,26.066,26.066,0,0,1-3.774-9.661,41.553,41.553,0,0,1-.391-11.1,82.561,82.561,0,0,1,2.052-12.1c-.491.088-.993.162-1.492.222a22.956,22.956,0,0,1-2.4.124,19.614,19.614,0,0,1-11.973-3.925,20.061,20.061,0,0,1-7.109-10.623,22.294,22.294,0,0,1-.708-9.073,18.93,18.93,0,0,1,3-8.066,1.282,1.282,0,0,1,.111-.21c2.816-4.292,6.51-6.147,9.478-7.639l.049-.025c2.877-1.434,4.956-2.47,5.473-5.052a2.817,2.817,0,0,0-.671-2.806,1.972,1.972,0,0,0-1.248-.476,1.749,1.749,0,0,0-.341.034,1.778,1.778,0,0,0-1.217.9,1.348,1.348,0,0,0-.054,1.242,1.49,1.49,0,0,1,1.211,1.485c-.079.577-.472,1.19-1.046,1.19a.8.8,0,0,1-.115-.009,2.84,2.84,0,0,1-2.176-1.56,3.714,3.714,0,0,1,.07-3.461,4.14,4.14,0,0,1,2.851-2.136,4.219,4.219,0,0,1,.824-.082,4.324,4.324,0,0,1,2.767,1.031,5.088,5.088,0,0,1,1.49,5.115,7.475,7.475,0,0,1-3.667,5.053,12.645,12.645,0,0,1,9.473,4.918c1.036-2.925,1.945-5.879,2.7-8.781.359,1.528.754,3.084,1.178,4.625-.684,2.26-1.442,4.514-2.254,6.7.209.415.4.851.578,1.295l3.874,1.4q.185-.59.368-1.18c.7,1.986,1.453,3.989,2.254,5.951-.72.637-1.475,1.272-2.245,1.887l-.31.956-.25.773c-1.81,5.579-3.682,11.345-5.175,16.861a21.164,21.164,0,0,0,5.807-3.167c1.132-3.774,2.519-7.872,4.239-12.529.457,1,.941,2.024,1.441,3.047-.731,2.039-1.411,4.014-2.02,5.873a23.425,23.425,0,0,0,2.756-4.4c.417.825.864,1.685,1.33,2.556a24.849,24.849,0,0,1-5.613,6.741c-2.642,8.961-3.784,16.047-3.394,21.063a13.718,13.718,0,0,0,2.593,7.978,6.608,6.608,0,0,0,4.828,2.547c2.714-.054,5.487-2.277,5.538-6.421-.281-2.363-1.293-4.031-2.707-4.46a2.5,2.5,0,0,0-2.578.765,3.328,3.328,0,0,0-.129,3.685,1.2,1.2,0,0,1-2.151,1.048,5.617,5.617,0,0,1,.467-6.283,4.821,4.821,0,0,1,5.091-1.5c1.128.348,3.816,1.69,4.4,6.625a9.327,9.327,0,0,1-2.514,6.626,7.836,7.836,0,0,1-5.364,2.32h-.164a8.375,8.375,0,0,1-6.362-3.066c-1.961-2.273-3.114-5.629-3.333-9.7a40.388,40.388,0,0,1,.457-8.878,89.06,89.06,0,0,1,2.189-10.12,24.059,24.059,0,0,1-5.513,2.387c-2.358,9.424-3.021,16.577-2.087,22.512a23.03,23.03,0,0,0,10.742,16.56,5.469,5.469,0,1,1,8.013,7.391,25.842,25.842,0,0,0,4.442,5.342,22.066,22.066,0,0,0,5.246,3.53,28.411,28.411,0,0,0,12.541,2.547,71.2,71.2,0,0,0,17.013-2.495,23.994,23.994,0,0,1,2.379-5.5,65.253,65.253,0,0,1-16.673,2.721c-.817,0-1.61-.031-2.355-.092-8.924-.487-12.824-5.3-12.73-9.855.08-3.87,3.126-7.822,8.792-7.887,5.092.58,6.43,3.271,6.769,4.4a4.83,4.83,0,0,1-1.494,5.1,5.039,5.039,0,0,1-3.314,1.185,6.8,6.8,0,0,1-2.964-.719,1.211,1.211,0,0,1-.561-1.6,1.187,1.187,0,0,1,1.072-.676,1.175,1.175,0,0,1,.526.124,4.468,4.468,0,0,0,1.93.486,2.68,2.68,0,0,0,1.761-.61,2.436,2.436,0,0,0,.755-2.582c-.437-1.435-2.117-2.425-4.61-2.717a6.56,6.56,0,0,0-4.607,1.777,5.507,5.507,0,0,0-1.661,3.771c-.075,3.407,3.139,7.023,10.49,7.421.646.05,1.335.075,2.049.075,4.828,0,11.24-1.167,19.056-3.468a24.808,24.808,0,0,1,6.569-5.512c.839.443,1.7.884,2.55,1.311a23.38,23.38,0,0,0-4.225,2.676c1.779-.583,3.694-1.24,5.691-1.955,1,.486,2.039.969,3.074,1.436-4.627,1.708-8.677,3.078-12.382,4.192a21.186,21.186,0,0,0-3.156,5.794c5.442-1.474,10.959-3.262,16.8-5.156l.058-.019.089-.029.406-.132c.772-.983,1.574-1.942,2.385-2.848,2.163.883,4.385,1.718,6.606,2.483l-1.093.341,1.4,3.869c.44.172.876.368,1.3.581,2.193-.813,4.443-1.571,6.688-2.252,1.546.416,3.121.807,4.682,1.163-2.9.753-5.872,1.665-8.835,2.712a12.774,12.774,0,0,1,4.927,9.475,7.477,7.477,0,0,1,5.053-3.666,7.044,7.044,0,0,1,1.368-.139,4.712,4.712,0,0,1,3.744,1.634,4.235,4.235,0,0,1,.952,3.576,4.167,4.167,0,0,1-2.134,2.865,3.946,3.946,0,0,1-1.827.459,3.606,3.606,0,0,1-1.645-.394,2.841,2.841,0,0,1-1.554-2.172,1.205,1.205,0,0,1,1.038-1.34c.04,0,.08,0,.121,0a1.182,1.182,0,0,1,1.22,1.042,1.479,1.479,0,0,0,.968.443,1.232,1.232,0,0,0,.567-.15,1.773,1.773,0,0,0,.9-1.211,1.905,1.905,0,0,0-.447-1.6,2.408,2.408,0,0,0-1.909-.761,4.391,4.391,0,0,0-.892.1c-2.573.5-3.612,2.57-5.049,5.436l-.017.034c-1.478,2.973-3.317,6.674-7.654,9.526a1.2,1.2,0,0,1-.227.119A19.468,19.468,0,0,1,2765.458,2584.472Zm5.81-31.8h0c-1.41.45-2.844.915-4.11,1.324l-.188.061a1.211,1.211,0,0,1-.533.173l-.1.032-.436.142-.048.015c-6.049,1.96-12.3,3.988-18.321,5.541a23.8,23.8,0,0,0-.413,2.416c-.97,9.008,4.015,16.426,12.7,18.9a20.513,20.513,0,0,0,5.63.806,16.876,16.876,0,0,0,10.175-3.244,13.869,13.869,0,0,0,4.589-5.7c2.343-5.6.913-10.8-3.824-13.9-.1-.068-.214-.138-.329-.208-.394.151-.713.274-1.031.4a1.093,1.093,0,0,1-.435.088,1.251,1.251,0,0,1-.5-.107,1.208,1.208,0,0,1-.641-.676l-.375-1.035a12.4,12.4,0,0,0-3.589-.543,9.675,9.675,0,0,0-7.16,2.964,6.808,6.808,0,0,0-1.931,6.819,5.6,5.6,0,0,0,5.356,3.5,5.678,5.678,0,0,0,.9-.071,3.785,3.785,0,0,0,3.462-3.769,1.253,1.253,0,0,1,1.241-1.156,1.179,1.179,0,0,1,.829.373,1.2,1.2,0,0,1,.33.868,6.137,6.137,0,0,1-5.5,6.053,7.868,7.868,0,0,1-1.192.089,8.055,8.055,0,0,1-7.684-5.095,9.05,9.05,0,0,1,2.484-9.282,11.923,11.923,0,0,1,8.838-3.689,14.6,14.6,0,0,1,2.645.246l-.841-2.331Zm-.917-2.533h0c-.12.131-.251.274-.41.452.088-.03.177-.058.266-.086l.249-.079-.1-.287ZM2702.635,2542a3.083,3.083,0,0,0-2.724,1.633,1.15,1.15,0,0,1-.144.355.788.788,0,0,1-.046.073,3.081,3.081,0,1,0,2.913-2.061Zm-22.939-75.109a13.343,13.343,0,0,0-5.149,1.107,14.07,14.07,0,0,0-5.7,4.58,18.02,18.02,0,0,0-2.433,15.814c2.253,7.908,8.633,12.821,16.65,12.821a20.411,20.411,0,0,0,2.253-.127,24.024,24.024,0,0,0,2.4-.409c1.557-6.026,3.588-12.285,5.552-18.338l.012-.038q.105-.32.208-.64l.021-.064.049-.151a1.2,1.2,0,0,1,.353-1.445c.051-.04.1-.079.153-.12.357-1.1.667-2.066.946-2.941l-2.339-.846a13.747,13.747,0,0,1-.2,6.061,11.645,11.645,0,0,1-3.257,5.452,9.6,9.6,0,0,1-6.686,2.9,7.741,7.741,0,0,1-2.586-.436c-3.916-1.4-5.5-5.622-5-8.885A6.118,6.118,0,0,1,2681,2475.7a.869.869,0,0,1,.126-.009,1.211,1.211,0,0,1,1.116,1.157,1.189,1.189,0,0,1-1.152,1.241,3.793,3.793,0,0,0-3.776,3.463,5.713,5.713,0,0,0,3.433,6.258,5.237,5.237,0,0,0,1.754.291,7.368,7.368,0,0,0,5.045-2.2,9.423,9.423,0,0,0,2.791-5.135,11.822,11.822,0,0,0-.351-5.642l-1.03-.372a1.231,1.231,0,0,1-.689-.635,1.271,1.271,0,0,1-.021-.933c.123-.31.255-.65.406-1.04-.06-.1-.126-.2-.2-.319a11.081,11.081,0,0,0-3.846-3.681A9.937,9.937,0,0,0,2679.7,2466.886Zm155.187,102.472a3.34,3.34,0,1,1,3.348-3.338A3.347,3.347,0,0,1,2834.883,2569.358Zm0-4.286a.952.952,0,0,0-.954.948.969.969,0,0,0,1.9,0A.949.949,0,0,0,2834.883,2565.072Zm59.625-33.07h-.87c.252-.2.521-.4.87-.679V2532Zm22.583-22.584h-.8c.256-.33.519-.671.8-1.043v1.042Zm51.276-6.975a14.786,14.786,0,0,1-1.882-.12,1.209,1.209,0,0,1-.835-.511,1.225,1.225,0,0,1-.174-.958,13.209,13.209,0,0,1,13.049-10.246,14.634,14.634,0,0,1,1.817.114,1.208,1.208,0,0,1,.83.517,1.169,1.169,0,0,1,.168.958,13.523,13.523,0,0,1-5.453,7.967A13.276,13.276,0,0,1,2968.366,2502.443Zm10.226-9.453h0a11.328,11.328,0,0,0-6.316,1.872,10.973,10.973,0,0,0-4.044,5.19,12.092,12.092,0,0,0,6.308-1.872,10.894,10.894,0,0,0,4.052-5.19Zm-314.1,9.453a13.29,13.29,0,0,1-7.519-2.28,13.589,13.589,0,0,1-5.458-7.957,1.192,1.192,0,0,1,1-1.485,14.69,14.69,0,0,1,1.819-.114,13.259,13.259,0,0,1,13.051,10.246,1.2,1.2,0,0,1-1.009,1.47A14.909,14.909,0,0,1,2664.488,2502.443Zm-10.237-9.452h0a10.922,10.922,0,0,0,4.069,5.19,10.763,10.763,0,0,0,6.3,1.873,10.874,10.874,0,0,0-4.053-5.191,11.744,11.744,0,0,0-6.319-1.872Zm27.409-40.118a3.343,3.343,0,1,1,.73-6.606,72.775,72.775,0,0,0-14.024-13.365,34.146,34.146,0,0,1-15.255,5.776c-.767.069-1.548.1-2.321.1a24.967,24.967,0,0,1-16.365-6.392,1.228,1.228,0,0,1-.425-.957,1.2,1.2,0,0,1,.425-.95c5.02-4.249,10.517-6.4,16.339-6.4.773,0,1.563.039,2.347.115a34.137,34.137,0,0,1,15.248,5.773,71.376,71.376,0,0,0,13.74-13,3.408,3.408,0,0,1-.439.029,3.35,3.35,0,1,1,2.792-1.5,3.755,3.755,0,0,1,2.455-.884,4.681,4.681,0,0,1,1.319.2,1.2,1.2,0,0,1,.627.455c.437-.279.87-.565,1.285-.851-.158,1.178-.3,2.386-.431,3.592-.3-.217-.632-.442-.974-.669a1.189,1.189,0,0,1-.316-.3,1.172,1.172,0,0,1-.876.075,2.336,2.336,0,0,0-.657-.106,1.383,1.383,0,0,0-1.081.5,2.412,2.412,0,0,0-.361.593c1.12,1.556,2.319,3.066,3.564,4.488.1-.013.2-.03.3-.052-.084,1.208-.153,2.446-.2,3.679-.4-.408-.774-.812-1.128-1.2a5.568,5.568,0,0,1-3.418-1.326v.71a1.195,1.195,0,1,1-2.389,0v-3.815a70.909,70.909,0,0,1-11.674,10.857,70.856,70.856,0,0,1,11.674,10.855v-3.766a1.216,1.216,0,0,1,2.389,0v.95a5.538,5.538,0,0,1,3.128-1.3c.468-.521.944-1.031,1.414-1.516.052,1.3.126,2.636.221,3.978-.111-.023-.227-.043-.348-.058-.064-.009-.134-.017-.206-.024-1.187,1.373-2.331,2.826-3.4,4.319a2.488,2.488,0,0,0,.442.786,1.336,1.336,0,0,0,1.071.509,2.439,2.439,0,0,0,.658-.1,1.208,1.208,0,0,1,.351-.053.513.513,0,0,0,.841-.184c.338-.224.672-.454.993-.683.126,1.183.274,2.4.441,3.629-.416-.287-.857-.58-1.314-.871a1.2,1.2,0,0,1-.626.451,4.756,4.756,0,0,1-1.336.2,3.708,3.708,0,0,1-2.449-.89,3.311,3.311,0,0,1,.566,1.854,3.34,3.34,0,0,1-3.348,3.347Zm0-4.286a.945.945,0,0,0-.949.939.99.99,0,0,0,1.017.923.827.827,0,0,0,.6-.243.93.93,0,0,0,.278-.671.917.917,0,0,0-.948-.948Zm-42.944-15.962a21.577,21.577,0,0,0,12.043,3.769c.7,0,1.417-.035,2.127-.105a29.384,29.384,0,0,0,11.2-3.664Zm12.131-6.152a21.778,21.778,0,0,0-12.11,3.758h25.34a29.4,29.4,0,0,0-11.19-3.662C2652.2,2426.505,2651.511,2426.473,2650.847,2426.473Zm30.813-13.768a.945.945,0,0,0-.949.939.965.965,0,0,0,1.9,0A.945.945,0,0,0,2681.66,2412.7Zm269.527,40.156a3.346,3.346,0,0,1-2.8-5.167,3.73,3.73,0,0,1-2.426.872,4.637,4.637,0,0,1-1.333-.2,1.2,1.2,0,0,1-.628-.453c-.773.491-1.535,1.01-2.262,1.542.226-1.595.426-3.236.594-4.88.564.427,1.164.852,1.785,1.264a.519.519,0,0,0,.852.187,1.3,1.3,0,0,1,.349.049,2.348,2.348,0,0,0,.642.1,1.359,1.359,0,0,0,1.081-.508,2.4,2.4,0,0,0,.367-.6c-1.12-1.553-2.318-3.061-3.562-4.48a4.429,4.429,0,0,0-1.194.337c.116-1.583.2-3.2.262-4.807.66.651,1.319,1.337,1.961,2.039a5.573,5.573,0,0,1,3.407,1.31v-.779a1.221,1.221,0,0,1,2.4,0v3.9a70.673,70.673,0,0,1,11.668-10.853,70.767,70.767,0,0,1-11.668-10.846v3.675a1.2,1.2,0,0,1-2.4,0v-.857a5.513,5.513,0,0,1-3.119,1.288c-.734.815-1.486,1.6-2.234,2.341-.054-1.681-.143-3.389-.264-5.079a4.405,4.405,0,0,0,1.215.335c.076.01.137.017.2.023,1.186-1.372,2.333-2.825,3.406-4.321a2.5,2.5,0,0,0-.444-.788,1.357,1.357,0,0,0-1.074-.5,2.281,2.281,0,0,0-.649.106,1.224,1.224,0,0,1-.363.056,1.17,1.17,0,0,1-.53-.127,1.21,1.21,0,0,1-.31.3c-.607.4-1.2.823-1.767,1.25-.161-1.6-.356-3.224-.583-4.84.706.516,1.454,1.027,2.226,1.519a1.193,1.193,0,0,1,.635-.454,4.723,4.723,0,0,1,1.324-.2,3.754,3.754,0,0,1,2.451.881,3.345,3.345,0,0,1,2.781-5.192,3.343,3.343,0,1,1-.717,6.608,72.6,72.6,0,0,0,14.017,13.361,34.136,34.136,0,0,1,15.248-5.775c.76-.069,1.523-.1,2.268-.1a24.981,24.981,0,0,1,16.419,6.4,1.276,1.276,0,0,1,0,1.9c-5.019,4.248-10.521,6.4-16.356,6.4-.759,0-1.543-.04-2.331-.119a34.138,34.138,0,0,1-15.239-5.769,71.243,71.243,0,0,0-13.741,13,3.389,3.389,0,0,1,.432-.027,3.343,3.343,0,1,1,0,6.685Zm0-4.286a.94.94,0,0,0-.94.939.963.963,0,0,0,1.894,0A.948.948,0,0,0,2951.187,2448.575Zm17.6-15.637h0a29.4,29.4,0,0,0,11.181,3.656c.667.061,1.342.092,2,.092a21.894,21.894,0,0,0,12.136-3.75Zm13.3-6.167c-.692,0-1.4.035-2.115.1a29.422,29.422,0,0,0-11.213,3.674h25.4A21.611,21.611,0,0,0,2982.083,2426.772Zm-30.9-14.079a.945.945,0,0,0-.94.948.963.963,0,0,0,1.894,0A.952.952,0,0,0,2951.187,2412.693Zm-271.593-2.823a3.785,3.785,0,0,1-.816-.08,4.142,4.142,0,0,1-2.869-2.13,3.782,3.782,0,0,1-.059-3.477,2.845,2.845,0,0,1,2.176-1.55,1.087,1.087,0,0,1,.111-.005,1.242,1.242,0,0,1,1.224,1.043,1.194,1.194,0,0,1-1.047,1.336,1.258,1.258,0,0,0-.284,1.534,1.764,1.764,0,0,0,1.217.9,1.806,1.806,0,0,0,.336.032,1.981,1.981,0,0,0,1.253-.478,2.817,2.817,0,0,0,.671-2.806c-.517-2.581-2.6-3.618-5.473-5.052l-.051-.025c-2.968-1.491-6.661-3.346-9.476-7.638a1.29,1.29,0,0,1-.121-.234,18.953,18.953,0,0,1-2.988-8.052,22.242,22.242,0,0,1,.7-9.058,20.086,20.086,0,0,1,7.11-10.631,19.578,19.578,0,0,1,11.961-3.929,22.38,22.38,0,0,1,2.405.131c.5.059,1,.135,1.5.223a82.531,82.531,0,0,1-2.053-12.131,41.453,41.453,0,0,1,.4-11.123,26.02,26.02,0,0,1,3.809-9.675,26.625,26.625,0,0,1,8.163-7.788,5.468,5.468,0,0,1,5.233-7.072,5.516,5.516,0,0,1,1.212.135,28.078,28.078,0,0,1,4.875-5.838,24.159,24.159,0,0,1,5.745-3.842,31,31,0,0,1,13.608-2.755,71.827,71.827,0,0,1,16.415,2.236c-.089-.5-.163-1-.222-1.489a19.542,19.542,0,0,1,14.419-21.477,22.824,22.824,0,0,1,6.289-.9,19.473,19.473,0,0,1,10.826,3.173,1.154,1.154,0,0,1,.239.124c4.312,2.833,6.163,6.539,7.651,9.516l0,.009.007.014c1.44,2.87,2.48,4.944,5.053,5.46a4.657,4.657,0,0,0,.876.088,2.393,2.393,0,0,0,1.92-.758,1.921,1.921,0,0,0,.457-1.59,1.793,1.793,0,0,0-.915-1.221,1.507,1.507,0,0,0-.689-.175,1.19,1.19,0,0,0-.543.124,1.633,1.633,0,0,1-1.4,1.217.7.7,0,0,1-.086-.005,1.527,1.527,0,0,1-1.013-.513.844.844,0,0,1-.17-.648,2.84,2.84,0,0,1,1.56-2.176,3.518,3.518,0,0,1,1.632-.4,3.983,3.983,0,0,1,1.825.455,4.2,4.2,0,0,1,2.141,2.871,4.256,4.256,0,0,1-.959,3.581,4.707,4.707,0,0,1-3.746,1.629,6.881,6.881,0,0,1-1.36-.134,7.5,7.5,0,0,1-5.054-3.678,12.675,12.675,0,0,1-4.917,9.48c3.246,1.148,6.5,2.134,9.675,2.929-1.581.356-3.189.75-4.781,1.175-2.5-.738-5-1.57-7.436-2.475-.419.211-.857.406-1.3.581l-1.4,3.864c.571.179,1.179.369,1.806.563-2.242.767-4.5,1.612-6.719,2.514-.844-.933-1.675-1.919-2.473-2.929l-.649-.211-.128-.042-.222-.072-.084-.027c-5.834-1.89-11.345-3.676-16.779-5.146a21.18,21.18,0,0,0,3.156,5.791c3.885,1.167,8.141,2.613,13.011,4.42-1.012.455-2.047.936-3.076,1.432-2.194-.792-4.319-1.525-6.315-2.18a23.527,23.527,0,0,0,4.778,2.934c-.844.421-1.72.87-2.6,1.337a24.9,24.9,0,0,1-7.076-5.8c-7.823-2.307-14.222-3.477-19.018-3.477-.715,0-1.405.026-2.052.077-7.366.407-10.594,4.025-10.525,7.43.06,2.718,2.289,5.494,6.431,5.539,2.357-.281,4.021-1.291,4.451-2.7a2.465,2.465,0,0,0-.754-2.583,2.651,2.651,0,0,0-1.755-.617,4.423,4.423,0,0,0-1.93.493,1.2,1.2,0,0,1-.514.115,1.223,1.223,0,0,1-1.091-.671,1.2,1.2,0,0,1,.567-1.6,6.752,6.752,0,0,1,2.969-.729,5.023,5.023,0,0,1,3.3,1.185,4.853,4.853,0,0,1,1.495,5.091c-.335,1.131-1.651,3.823-6.616,4.406a9.327,9.327,0,0,1-6.626-2.513,7.828,7.828,0,0,1-2.319-5.363c-.095-4.563,3.814-9.383,12.76-9.865.725-.058,1.5-.087,2.292-.087a66.323,66.323,0,0,1,16.7,2.724,23.983,23.983,0,0,1-2.377-5.5,71.291,71.291,0,0,0-17.016-2.492,28.53,28.53,0,0,0-12.423,2.488,22.059,22.059,0,0,0-5.211,3.445,25.55,25.55,0,0,0-4.427,5.211,5.469,5.469,0,1,1-7.433,7.974,23.059,23.059,0,0,0-10.988,16.6c-.968,5.96-.312,13.157,2.062,22.649a24.006,24.006,0,0,1,5.518,2.39,89.236,89.236,0,0,1-2.191-10.14,40.535,40.535,0,0,1-.457-8.9c.22-4.056,1.372-7.4,3.333-9.668a8.383,8.383,0,0,1,6.362-3.063h.164c3.866.08,7.817,3.126,7.888,8.791a9.341,9.341,0,0,1-2,5.173,5.267,5.267,0,0,1-2.4,1.607,4.785,4.785,0,0,1-1.405.211,4.84,4.84,0,0,1-3.686-1.711,5.616,5.616,0,0,1-.467-6.278,1.194,1.194,0,1,1,2.151,1.039,3.309,3.309,0,0,0,.129,3.685,2.474,2.474,0,0,0,1.871.87,2.446,2.446,0,0,0,.707-.1c1.439-.437,2.429-2.119,2.717-4.614a6.564,6.564,0,0,0-1.777-4.607,5.5,5.5,0,0,0-3.77-1.661h-.021c-.053,0-.106,0-.158,0a6.034,6.034,0,0,0-4.719,2.541,14.141,14.141,0,0,0-2.524,7.957c-.389,5.022.753,12.121,3.4,21.1a24.835,24.835,0,0,1,5.558,6.649c-.444.833-.89,1.69-1.324,2.551a23.326,23.326,0,0,0-2.707-4.3c.59,1.8,1.256,3.74,1.98,5.765-.493,1.009-.979,2.038-1.444,3.058-1.708-4.635-3.08-8.7-4.2-12.434a21.144,21.144,0,0,0-5.809-3.168c1.488,5.5,3.364,11.279,5.178,16.87l.146.451.115.355.231.715c.794.633,1.568,1.282,2.3,1.929-.8,1.972-1.569,3.994-2.272,6.01-.119-.382-.238-.762-.338-1.083l-3.873,1.4c-.17.435-.365.87-.578,1.294.8,2.165,1.552,4.39,2.228,6.613-.42,1.531-.815,3.086-1.174,4.624-.748-2.856-1.649-5.781-2.68-8.691a12.726,12.726,0,0,1-9.484,4.914,7.492,7.492,0,0,1,3.677,5.063,5.093,5.093,0,0,1-1.49,5.111A4.322,4.322,0,0,1,2679.594,2409.87Zm3.459-47.912a16.986,16.986,0,0,0-10.468,3.431,19.012,19.012,0,0,0-3.74,25.195,14.019,14.019,0,0,0,5.7,4.589,13.418,13.418,0,0,0,5.15,1.1,9.944,9.944,0,0,0,4.906-1.247,11.046,11.046,0,0,0,3.846-3.679c.07-.107.137-.215.2-.319-.145-.375-.274-.7-.406-1.039a1.25,1.25,0,0,1,.021-.929,1.212,1.212,0,0,1,.69-.641l1.029-.373a11.834,11.834,0,0,0,.355-5.635,9.382,9.382,0,0,0-2.775-5.12,7.415,7.415,0,0,0-5.058-2.226,5.138,5.138,0,0,0-1.761.3,5.691,5.691,0,0,0-3.432,6.252,3.8,3.8,0,0,0,3.774,3.468,1.192,1.192,0,0,1,1.153,1.241,1.28,1.28,0,0,1-1.241,1.153,6.126,6.126,0,0,1-6.056-5.489c-.5-3.267,1.083-7.491,5-8.886a7.671,7.671,0,0,1,2.583-.438,9.651,9.651,0,0,1,6.71,2.912,11.613,11.613,0,0,1,3.241,5.441,13.753,13.753,0,0,1,.2,6.055l2.336-.845c-.286-.9-.605-1.893-1.006-3.133l-.016-.012-.031-.024-.043-.034a1.2,1.2,0,0,1-.379-1.382q-.125-.387-.252-.774c-1.966-6.057-4-12.321-5.565-18.374a23.721,23.721,0,0,0-2.412-.411A20.555,20.555,0,0,0,2683.053,2361.958Zm19.582-47.43a3.082,3.082,0,1,0,1.486.386,1.244,1.244,0,0,1-.384-.143,1.164,1.164,0,0,1-.113-.079A3.061,3.061,0,0,0,2702.635,2314.528Zm63.607-6.082a1.208,1.208,0,0,1,.87.372c1.34.435,2.544.823,3.68,1.185l.844-2.33a14.633,14.633,0,0,1-2.636.243,12.008,12.008,0,0,1-8.879-3.7,9.071,9.071,0,0,1-2.457-9.278,7.323,7.323,0,0,1,3.154-3.834,8.8,8.8,0,0,1,4.508-1.25,7.963,7.963,0,0,1,1.219.092,6.114,6.114,0,0,1,5.488,6.05,1.2,1.2,0,0,1-1.152,1.241,1.269,1.269,0,0,1-1.243-1.152,3.786,3.786,0,0,0-3.456-3.775,5.953,5.953,0,0,0-.872-.063,6.316,6.316,0,0,0-3.187.858,4.969,4.969,0,0,0-2.194,2.642,6.766,6.766,0,0,0,1.908,6.8,9.7,9.7,0,0,0,7.18,2.977,12.386,12.386,0,0,0,3.594-.545l.373-1.026a1.217,1.217,0,0,1,.631-.691,1.289,1.289,0,0,1,.495-.1,1.209,1.209,0,0,1,.434.08c.3.12.635.249,1.046.407.109-.066.217-.134.322-.2,4.741-3.1,6.167-8.3,3.815-13.9a13.94,13.94,0,0,0-4.579-5.707,16.91,16.91,0,0,0-10.173-3.24,20.548,20.548,0,0,0-5.632.806c-8.686,2.472-13.669,9.895-12.694,18.909a23.55,23.55,0,0,0,.408,2.394c6.026,1.555,12.292,3.587,18.352,5.552l.016.005.177.058.116.038.308.1A1.137,1.137,0,0,1,2766.242,2308.446Zm187.021,101.423a4.272,4.272,0,0,1-2.762-1.028,5.081,5.081,0,0,1-1.495-5.121,7.476,7.476,0,0,1,3.664-5.044,12.757,12.757,0,0,1-9.477-4.923,106.151,106.151,0,0,0-3.124,10.484c-.352-1.611-.746-3.256-1.172-4.889.785-2.72,1.685-5.455,2.674-8.129-.217-.432-.412-.872-.582-1.307l-3.865-1.4c-.25.795-.5,1.6-.745,2.4-.747-2.217-1.572-4.457-2.455-6.658.889-.81,1.835-1.616,2.811-2.4q.227-.7.456-1.407l.1-.316,0-.006c1.9-5.863,3.7-11.4,5.181-16.868a21.156,21.156,0,0,0-5.806,3.166c-1.2,4.014-2.7,8.423-4.586,13.478-.45-1.011-.927-2.047-1.42-3.079.86-2.372,1.65-4.657,2.35-6.794a23.63,23.63,0,0,0-3.128,5.194c-.433-.874-.874-1.74-1.35-2.648a24.944,24.944,0,0,1,6-7.441,102.624,102.624,0,0,0,2.711-11.276,40.784,40.784,0,0,0,.682-9.795c-.389-7.235-3.922-10.531-7.039-10.531-.128,0-.256.005-.382.016-2.714.059-5.487,2.284-5.537,6.422.285,2.364,1.3,4.031,2.707,4.46a2.443,2.443,0,0,0,2.578-.765,3.313,3.313,0,0,0,.129-3.685,1.183,1.183,0,0,1,.551-1.59,1.151,1.151,0,0,1,.529-.128,1.2,1.2,0,0,1,1.071.68,5.65,5.65,0,0,1-.462,6.278,4.825,4.825,0,0,1-5.1,1.5c-1.131-.35-3.823-1.7-4.39-6.626a9.318,9.318,0,0,1,2.505-6.625,7.727,7.727,0,0,1,5.367-2.32h.169a8.37,8.37,0,0,1,6.354,3.066c1.963,2.274,3.117,5.626,3.337,9.694a40.4,40.4,0,0,1-.458,8.885,89.282,89.282,0,0,1-2.19,10.121,24.041,24.041,0,0,1,5.513-2.387c2.379-9.5,3.034-16.709,2.061-22.675a23.06,23.06,0,0,0-11.036-16.6,5.471,5.471,0,1,1-7.781-7.674,25.809,25.809,0,0,0-4.44-5.337,22.047,22.047,0,0,0-5.245-3.527,28.434,28.434,0,0,0-12.541-2.545,71.3,71.3,0,0,0-17.016,2.492,24.005,24.005,0,0,1-2.39,5.512,66,66,0,0,1,16.819-2.732c.769,0,1.515.027,2.217.08,8.917.482,12.824,5.3,12.74,9.865-.09,3.867-3.139,7.817-8.791,7.887-5.112-.592-6.444-3.285-6.78-4.416a4.823,4.823,0,0,1,1.495-5.08,5,5,0,0,1,3.306-1.191,6.852,6.852,0,0,1,2.977.724,1.2,1.2,0,0,1,.556,1.6,1.219,1.219,0,0,1-1.6.556,4.415,4.415,0,0,0-1.924-.493,2.661,2.661,0,0,0-1.761.617,2.481,2.481,0,0,0-.755,2.583c.438,1.436,2.119,2.424,4.613,2.712a6.547,6.547,0,0,0,4.608-1.776,5.51,5.51,0,0,0,1.661-3.773c.068-3.407-3.151-7.023-10.5-7.419-.643-.05-1.33-.076-2.042-.076-4.814,0-11.229,1.17-19.068,3.479a24.946,24.946,0,0,1-7.207,5.867c-.859-.455-1.738-.908-2.612-1.345a23.51,23.51,0,0,0,4.916-2.994c-2.023.663-4.2,1.413-6.465,2.232-1-.485-2.036-.968-3.073-1.435,4.923-1.828,9.227-3.289,13.16-4.467a21.117,21.117,0,0,0,3.163-5.8c-5.45,1.475-10.975,3.265-16.824,5.16l-.035.011-.159.052-.052.017-.279.09c-.9,1.145-1.833,2.254-2.784,3.3-2.315-.954-4.693-1.851-7.07-2.667.58-.179,1.2-.372,1.958-.609l-1.4-3.87c-.439-.172-.875-.366-1.3-.577-2.483.922-5.033,1.769-7.577,2.518-1.569-.42-3.175-.817-4.772-1.179,3.207-.8,6.506-1.8,9.806-2.964a12.668,12.668,0,0,1-4.914-9.475,7.509,7.509,0,0,1-5.053,3.673,6.977,6.977,0,0,1-1.366.134,4.734,4.734,0,0,1-3.745-1.629,4.209,4.209,0,0,1-.948-3.581,4.148,4.148,0,0,1,2.131-2.871,3.914,3.914,0,0,1,1.821-.458,3.543,3.543,0,0,1,1.645.4,2.808,2.808,0,0,1,1.55,2.176,1.171,1.171,0,0,1-.232.876,1.2,1.2,0,0,1-.806.46,1.053,1.053,0,0,1-.136.009,1.243,1.243,0,0,1-1.2-1.056,1.48,1.48,0,0,0-.955-.434,1.2,1.2,0,0,0-.569.155,1.7,1.7,0,0,0-.9,1.211,1.874,1.874,0,0,0,.446,1.59,2.371,2.371,0,0,0,1.9.766,4.556,4.556,0,0,0,.9-.1c2.581-.517,3.617-2.6,5.051-5.473l.005-.012c1.488-2.978,3.339-6.683,7.649-9.515a1.206,1.206,0,0,1,.229-.12,19.44,19.44,0,0,1,10.829-3.178,22.885,22.885,0,0,1,6.3.9,19.545,19.545,0,0,1,14.429,21.467c-.062.5-.137,1-.224,1.494a71.77,71.77,0,0,1,16.4-2.235,30.964,30.964,0,0,1,13.659,2.78,24.162,24.162,0,0,1,5.76,3.877,28.2,28.2,0,0,1,4.882,5.893,5.469,5.469,0,0,1,6.876,6.781,26.676,26.676,0,0,1,8.2,7.788,25.993,25.993,0,0,1,3.83,9.683,41.409,41.409,0,0,1,.411,11.137,82.553,82.553,0,0,1-2.054,12.15c.507-.091,1.011-.165,1.5-.222a22.5,22.5,0,0,1,2.375-.127,19.654,19.654,0,0,1,11.989,3.926,20.05,20.05,0,0,1,7.117,10.63,22.17,22.17,0,0,1,.711,9.067,18.917,18.917,0,0,1-3,8.057,1.223,1.223,0,0,1-.113.22c-2.836,4.309-6.537,6.164-9.511,7.656l-.018.009c-2.883,1.437-4.966,2.474-5.467,5.051a2.752,2.752,0,0,0,.667,2.8,1.962,1.962,0,0,0,1.261.489,1.774,1.774,0,0,0,.332-.032,1.806,1.806,0,0,0,1.212-.9,1.363,1.363,0,0,0,.049-1.251,1.439,1.439,0,0,1-.913-.567,1.263,1.263,0,0,1-.293-.908c.071-.591.427-1.188,1.061-1.188a1.056,1.056,0,0,1,.106.006,2.837,2.837,0,0,1,2.16,1.55,3.742,3.742,0,0,1-.055,3.477,4.142,4.142,0,0,1-2.865,2.131A3.745,3.745,0,0,1,2953.263,2409.869Zm-2.9-34.8a7.379,7.379,0,0,0-5.053,2.2,9.415,9.415,0,0,0-2.788,5.134,11.837,11.837,0,0,0,.351,5.645l1.022.37a1.2,1.2,0,0,1,.7,1.57c-.118.3-.245.627-.4,1.03.076.126.143.23.208.328a11.037,11.037,0,0,0,3.831,3.681,9.892,9.892,0,0,0,4.9,1.251,13.378,13.378,0,0,0,5.174-1.118,13.9,13.9,0,0,0,5.7-4.579,17.973,17.973,0,0,0,2.439-15.794,17.723,17.723,0,0,0-6.21-9.407,17.265,17.265,0,0,0-10.564-3.409,21.238,21.238,0,0,0-2.144.11,24.029,24.029,0,0,0-2.4.409c-1.562,6.051-3.6,12.318-5.561,18.378l-.129.4-.149.461a1.2,1.2,0,0,1-.357,1.443l-.121.094-.026.02c-.35,1.084-.659,2.047-.946,2.946l2.335.845a13.769,13.769,0,0,1,.2-6.062,11.677,11.677,0,0,1,3.257-5.457,9.567,9.567,0,0,1,6.676-2.888,7.752,7.752,0,0,1,2.586.435c3.924,1.394,5.508,5.619,5.007,8.886a6.129,6.129,0,0,1-6.064,5.488,1.238,1.238,0,0,1-1.242-1.153,1.2,1.2,0,0,1,1.156-1.241,3.8,3.8,0,0,0,3.78-3.467,5.707,5.707,0,0,0-3.433-6.263A5.272,5.272,0,0,0,2950.363,2375.069Zm-20.226-60.541a3.079,3.079,0,1,0,3.074,3.074A3.083,3.083,0,0,0,2930.137,2314.528Zm-67.308-2.44h0l-.237.076-.126.04-.156.05.1.29c.125-.137.258-.281.415-.456Zm-2.184-4.42.848,2.335c1.236-.4,2.614-.84,4.335-1.4a1.213,1.213,0,0,1,.467-.151l.345-.112.219-.071c6.051-1.965,12.308-4,18.367-5.56a24.063,24.063,0,0,0,.41-2.4c.984-9.006-4-16.425-12.7-18.9a20.544,20.544,0,0,0-5.631-.806,16.9,16.9,0,0,0-10.172,3.24,13.913,13.913,0,0,0-4.579,5.707c-2.346,5.6-.92,10.792,3.814,13.9.1.064.2.131.321.2.324-.125.676-.261,1.048-.408a1.271,1.271,0,0,1,.441-.079,1.228,1.228,0,0,1,.488.1,1.211,1.211,0,0,1,.63.69l.37,1.025a12.42,12.42,0,0,0,3.61.548,9.687,9.687,0,0,0,7.158-2.959,6.812,6.812,0,0,0,1.928-6.819,5.633,5.633,0,0,0-5.382-3.5,5.784,5.784,0,0,0-.88.066,3.8,3.8,0,0,0-3.457,3.775,1.3,1.3,0,0,1-1.243,1.152,1.2,1.2,0,0,1-1.152-1.241,6.114,6.114,0,0,1,5.489-6.05,7.88,7.88,0,0,1,1.229-.094,8.023,8.023,0,0,1,7.651,5.086,9.1,9.1,0,0,1-2.473,9.3,11.967,11.967,0,0,1-8.846,3.678,14.683,14.683,0,0,1-2.656-.247Zm117.814,64.89a13.278,13.278,0,0,1-7.53-2.281,13.53,13.53,0,0,1-5.453-7.961,1.215,1.215,0,0,1,.174-.963,1.244,1.244,0,0,1,.835-.512,14.9,14.9,0,0,1,1.792-.109,13.191,13.191,0,0,1,13.063,10.227,1.169,1.169,0,0,1-.169.968,1.2,1.2,0,0,1-.828.517A16.093,16.093,0,0,1,2978.459,2372.558Zm-9.457-9.478a7.617,7.617,0,0,0-.779.041,10.808,10.808,0,0,0,10.237,7.053.635.635,0,0,0,.133-.01,10.953,10.953,0,0,0-4.052-5.18A9.928,9.928,0,0,0,2969,2363.081Zm-314.6,9.478a16.161,16.161,0,0,1-1.893-.114,1.231,1.231,0,0,1-.834-.516,1.21,1.21,0,0,1-.164-.969,13.2,13.2,0,0,1,13.069-10.226,14.847,14.847,0,0,1,1.791.109,1.235,1.235,0,0,1,.835.511,1.216,1.216,0,0,1,.174.974,13.552,13.552,0,0,1-5.464,7.952A13.2,13.2,0,0,1,2654.4,2372.558Zm9.653-9.456a10.429,10.429,0,0,0-5.735,1.882,10.975,10.975,0,0,0-4.069,5.18,7.34,7.34,0,0,0,.777.041,10.136,10.136,0,0,0,5.542-1.9,10.873,10.873,0,0,0,4.053-5.18C2664.447,2363.109,2664.256,2363.1,2664.055,2363.1Zm253.036-8.5,0,0c-.345-.453-.7-.909-1.048-1.356h1.049v1.359Zm-22.583-22.95h0c-.415-.327-.84-.658-1.263-.982h1.265v.984ZM2738.331,2331v-.324h.421l-.419.323Zm95.4-25.283h0c-1.437-.2-2.9-.38-4.343-.531.342-.463.684-.951,1.016-1.453a1.116,1.116,0,0,1,.3-.315,1.2,1.2,0,0,1-.073-.886,1.5,1.5,0,0,0-.4-1.729,2.4,2.4,0,0,0-.527-.33c-1.587,1.144-3.119,2.364-4.552,3.625a4.376,4.376,0,0,0,.182.729c-1.375-.1-2.788-.18-4.2-.236.519-.516,1.049-1.021,1.575-1.5a5.6,5.6,0,0,1,1.327-3.514h-.422a1.2,1.2,0,0,1,0-2.394h3.643A70.97,70.97,0,0,1,2816.4,2285.5a70.559,70.559,0,0,1-10.86,11.677h3.48a1.2,1.2,0,1,1,0,2.394h-.759a5.515,5.515,0,0,1,1.276,3.015c.728.651,1.433,1.316,2.1,1.975-1.544.052-3.118.134-4.677.243a4.392,4.392,0,0,0,.191-.828c.012-.09.022-.186.029-.292-1.356-1.168-2.789-2.293-4.259-3.344a2.567,2.567,0,0,0-.855.461,1.506,1.506,0,0,0-.408,1.739,1.172,1.172,0,0,1-.071.875,1.2,1.2,0,0,1,.307.317c.321.485.656.964.994,1.424-1.411.145-2.855.317-4.292.514.41-.577.822-1.188,1.221-1.817a1.2,1.2,0,0,1-.45-.627,3.888,3.888,0,0,1,1.139-4.236,4.379,4.379,0,0,1,.532-.393,1,1,0,0,1-.012-.138,1.27,1.27,0,0,1,.442-.994,71.989,71.989,0,0,0,13.469-14.1,34.136,34.136,0,0,1-5.775-15.254c-.641-6.711,1.474-13,6.286-18.686a1.2,1.2,0,0,1,.915-.423h.079a1.193,1.193,0,0,1,.909.423c4.816,5.684,6.934,11.971,6.295,18.686a34.208,34.208,0,0,1-5.775,15.254,72.574,72.574,0,0,0,13.466,14.1,3.393,3.393,0,0,1-.1-.8,3.353,3.353,0,1,1,.535,1.812,1.133,1.133,0,0,1-.1.428l.108.089a3.869,3.869,0,0,1,1.137,4.236,1.2,1.2,0,0,1-.447.617c.4.634.827,1.264,1.26,1.871Zm.856-10a.95.95,0,0,0-.949.949.965.965,0,0,0,1.9,0A.949.949,0,0,0,2834.586,2295.709Zm-19.38-41.989a21.514,21.514,0,0,0-3.665,14.164,29.387,29.387,0,0,0,3.665,11.2v-25.364Zm2.394.009v25.352a29.425,29.425,0,0,0,3.659-11.2,21.468,21.468,0,0,0-3.659-14.155ZM2797.881,2300a3.343,3.343,0,1,1,3.348-3.347A3.346,3.346,0,0,1,2797.881,2300Zm0-4.3a.945.945,0,0,0-.939.949.966.966,0,0,0,1.9,0A.955.955,0,0,0,2797.881,2295.709Zm87.816-13.3a1.453,1.453,0,0,1-.293-.03,13.291,13.291,0,0,1-10.119-14.861,1.2,1.2,0,0,1,.517-.834,1.184,1.184,0,0,1,.669-.212,1.089,1.089,0,0,1,.289.039,13.278,13.278,0,0,1,10.119,14.861,1.183,1.183,0,0,1-1.182,1.038Zm-8.141-13.152a10.8,10.8,0,1,0,5.191,4.063,10.843,10.843,0,0,0-5.191-4.063Zm-130.967,13.152a1.183,1.183,0,0,1-1.182-1.038,13.318,13.318,0,0,1,2.159-9.4,13.547,13.547,0,0,1,7.958-5.458,1.093,1.093,0,0,1,.29-.039,1.216,1.216,0,0,1,1.186,1.047,13.293,13.293,0,0,1-10.118,14.861A1.485,1.485,0,0,1,2746.589,2282.408Zm8.14-13.152a10.809,10.809,0,1,0-1.872,6.313,10.866,10.866,0,0,0,1.872-6.313Z" transform="translate(-2296 -2213.486)" fill="#b6a28a" stroke="rgba(0,0,0,0)" stroke-miterlimit="10" stroke-width="1"/>
  </g>
</svg>
